<svg xmlns="http://www.w3.org/2000/svg" viewBox="0 0 512 512"><title>climbing</title><!-- Icon set, Operation Beast Brand Guidelines 2025 (page 44) --><path fill="currentColor" fill-rule="nonzero" d="M360.0 144.8 L264.6 101.5 C261.4 100.0 258.1 99.3 254.8 99.3 C245.9 99.4 237.4 104.3 233.3 112.8 L216.4 147.6 C210.6 159.6 215.9 174.1 228.0 179.7 L323.5 223.0 C326.7 224.5 330.0 225.1 333.3 225.1 C342.1 225.1 350.6 220.2 354.7 211.7 L371.6 176.8 C377.4 164.8 372.2 150.4 360.0 144.8Z M473.6 260.5 C467.1 224.5 443.3 193.9 410.2 178.8 L402.7 175.4 C401.9 180.3 400.6 185.2 398.3 189.8 L381.5 224.7 C380.6 226.4 379.6 228.0 378.6 229.7 L385.4 232.8 C401.2 240.0 411.9 254.0 415.1 270.9 C418.1 288.0 412.8 304.9 400.5 317.1 L343.9 373.8 C323.6 394.1 290.5 394.2 270.1 373.8 L117.6 221.3 C107.7 211.3 102.4 198.3 102.4 184.3 C102.4 170.5 107.7 157.3 117.6 147.5 C127.5 137.5 141.0 132.2 154.6 132.2 C161.9 132.2 169.3 133.8 176.2 137.0 L187.1 141.9 C187.8 139.4 188.6 137.1 189.7 134.7 L206.6 99.8 C208.5 95.8 211.1 92.1 213.9 88.8 L201.0 82.8 C158.8 63.5 108.4 72.6 75.5 105.4 C32.0 148.9 32.0 219.7 75.5 263.3 L228.0 415.8 C249.8 437.6 278.4 448.5 307.0 448.5 C335.6 448.5 364.2 437.6 385.9 415.8 L442.6 359.2 C468.4 333.3 480.0 296.4 473.6 260.5Z"/></svg>
