<svg xmlns="http://www.w3.org/2000/svg" viewBox="0 0 512 512"><title>pingpong</title><!-- Icon set, Operation Beast Brand Guidelines 2025 (page 44) --><path fill="currentColor" fill-rule="nonzero" d="M401.5 124.4 C374.0 96.9 338.8 81.5 302.4 78.0 C302.5 79.4 302.7 81.0 302.7 82.6 C302.7 127.8 265.9 164.7 220.6 164.7 C195.4 164.7 172.8 153.2 157.8 135.3 C136.3 159.5 122.8 188.1 117.3 217.7 C116.8 220.0 117.6 222.3 119.3 223.9 L302.0 406.7 C303.7 408.4 306.0 409.2 308.4 408.8 C341.1 402.6 372.7 386.9 398.3 361.2 C464.6 294.9 466.0 188.9 401.5 124.4 M114.3 263.7 C113.4 262.8 111.8 263.5 111.9 264.8 C112.5 271.7 113.4 278.7 114.9 285.6 C123.3 326.1 109.4 367.8 80.2 397.0 L50.9 426.3 C46.0 431.3 46.0 439.2 50.9 444.2 L81.8 475.1 C86.8 480.0 94.8 480.0 99.7 475.1 L129.0 445.8 C158.1 416.6 200.0 402.7 240.4 411.1 C247.3 412.5 254.2 413.5 261.2 414.1 C262.5 414.2 263.3 412.5 262.3 411.7 L114.3 263.7Z M220.6 32.0 C192.7 32.0 170.0 54.6 170.0 82.6 C170.0 110.5 192.7 133.1 220.6 133.1 C248.5 133.1 271.1 110.5 271.1 82.6 C271.1 54.6 248.5 32.0 220.6 32.0Z"/></svg>
